<svg width="24" height="24" viewBox="0 0 24 24" fill="none" xmlns="http://www.w3.org/2000/svg">
<g clip-path="url(#clip0_500_6771)">
<path d="M20.1397 4.00011H10.3697C9.62964 4.00452 8.91733 4.28232 8.3697 4.78011L8.2697 4.89011L2.2697 12.3701C2.10947 12.5693 2.03158 12.8222 2.05204 13.077C2.0725 13.3318 2.18974 13.5691 2.3797 13.7401L8.3797 19.2201C8.92733 19.7179 9.63964 19.9957 10.3797 20.0001H20.1497C20.636 20.0028 21.1035 19.8128 21.4502 19.4718C21.7969 19.1308 21.9944 18.6664 21.9997 18.1801V5.82011C21.9971 5.57847 21.9469 5.33972 21.852 5.11748C21.7571 4.89524 21.6194 4.69386 21.4467 4.52486C21.2739 4.35585 21.0696 4.22253 20.8454 4.13249C20.6211 4.04245 20.3813 3.99747 20.1397 4.00011V4.00011ZM19.9997 18.0001H10.3697C10.1219 17.9995 9.88309 17.9068 9.6997 17.7401L4.3697 12.8901L9.7497 6.22011C9.92564 6.07895 10.1441 6.00142 10.3697 6.00011H19.9997V18.0001Z" fill="white"/>
<path d="M11.2899 14.7102C11.3829 14.8039 11.4935 14.8783 11.6154 14.9291C11.7372 14.9798 11.8679 15.006 11.9999 15.006C12.132 15.006 12.2627 14.9798 12.3845 14.9291C12.5064 14.8783 12.617 14.8039 12.7099 14.7102L13.9999 13.4102L15.2899 14.7102C15.3829 14.8039 15.4935 14.8783 15.6154 14.9291C15.7372 14.9798 15.8679 15.006 15.9999 15.006C16.132 15.006 16.2627 14.9798 16.3845 14.9291C16.5064 14.8783 16.617 14.8039 16.7099 14.7102C16.8037 14.6172 16.8781 14.5066 16.9288 14.3848C16.9796 14.2629 17.0057 14.1322 17.0057 14.0002C17.0057 13.8682 16.9796 13.7375 16.9288 13.6156C16.8781 13.4937 16.8037 13.3831 16.7099 13.2902L15.4099 12.0002L16.7099 10.7102C16.8982 10.5219 17.004 10.2665 17.004 10.0002C17.004 9.73388 16.8982 9.47849 16.7099 9.29018C16.5216 9.10188 16.2662 8.99609 15.9999 8.99609C15.7336 8.99609 15.4782 9.10188 15.2899 9.29018L13.9999 10.5902L12.7099 9.29018C12.5216 9.10188 12.2662 8.99609 11.9999 8.99609C11.7336 8.99609 11.4782 9.10188 11.2899 9.29018C11.1016 9.47849 10.9958 9.73388 10.9958 10.0002C10.9958 10.2665 11.1016 10.5219 11.2899 10.7102L12.5899 12.0002L11.2899 13.2902C11.1962 13.3831 11.1218 13.4937 11.071 13.6156C11.0203 13.7375 10.9941 13.8682 10.9941 14.0002C10.9941 14.1322 11.0203 14.2629 11.071 14.3848C11.1218 14.5066 11.1962 14.6172 11.2899 14.7102V14.7102Z" fill="white"/>
</g>
<defs>
<clipPath id="clip0_500_6771">
<rect width="24" height="24" fill="white"/>
</clipPath>
</defs>
</svg>
