<svg width="40" height="40" viewBox="0 0 40 40" fill="none" xmlns="http://www.w3.org/2000/svg">
<g clip-path="url(#clip0_464_8530)">
<path d="M20.0007 3.33203C16.7043 3.33203 13.482 4.30951 10.7412 6.14087C8.00034 7.97223 5.86413 10.5752 4.60267 13.6206C3.34121 16.6661 3.01115 20.0172 3.65424 23.2502C4.29732 26.4832 5.88467 29.4529 8.21555 31.7838C10.5464 34.1147 13.5161 35.702 16.7492 36.3451C19.9822 36.9882 23.3333 36.6582 26.3787 35.3967C29.4242 34.1352 32.0271 31.999 33.8585 29.2582C35.6898 26.5174 36.6673 23.2951 36.6673 19.9987C36.6673 17.81 36.2362 15.6427 35.3987 13.6206C34.5611 11.5985 33.3334 9.76123 31.7858 8.21359C30.2381 6.66594 28.4008 5.43828 26.3787 4.60071C24.3566 3.76313 22.1894 3.33203 20.0007 3.33203V3.33203ZM20.0007 33.332C17.3636 33.332 14.7857 32.55 12.5931 31.085C10.4004 29.6199 8.69143 27.5375 7.68227 25.1011C6.6731 22.6648 6.40905 19.9839 6.92352 17.3975C7.43799 14.8111 8.70787 12.4353 10.5726 10.5706C12.4373 8.70591 14.813 7.43603 17.3995 6.92156C19.9859 6.40709 22.6668 6.67114 25.1031 7.6803C27.5395 8.68947 29.6218 10.3984 31.0869 12.5911C32.552 14.7838 33.334 17.3616 33.334 19.9987C33.334 23.5349 31.9292 26.9263 29.4287 29.4268C26.9283 31.9273 23.5369 33.332 20.0007 33.332V33.332Z" fill="#FCFDFE"/>
<path d="M20.0007 15.0013C20.9211 15.0013 21.6673 14.2551 21.6673 13.3346C21.6673 12.4142 20.9211 11.668 20.0007 11.668C19.0802 11.668 18.334 12.4142 18.334 13.3346C18.334 14.2551 19.0802 15.0013 20.0007 15.0013Z" fill="#FBF8F8"/>
<path d="M20.0007 16.668C19.5586 16.668 19.1347 16.8436 18.8221 17.1561C18.5096 17.4687 18.334 17.8926 18.334 18.3346V26.668C18.334 27.11 18.5096 27.5339 18.8221 27.8465C19.1347 28.159 19.5586 28.3346 20.0007 28.3346C20.4427 28.3346 20.8666 28.159 21.1792 27.8465C21.4917 27.5339 21.6673 27.11 21.6673 26.668V18.3346C21.6673 17.8926 21.4917 17.4687 21.1792 17.1561C20.8666 16.8436 20.4427 16.668 20.0007 16.668Z" fill="#FBF6F6"/>
</g>
<defs>
<clipPath id="clip0_464_8530">
<rect width="40" height="40" fill="white"/>
</clipPath>
</defs>
</svg>
