<svg width="25" height="24" viewBox="0 0 25 24" fill="none" xmlns="http://www.w3.org/2000/svg">
<path d="M13.5 2C13.2348 2 12.9804 2.10536 12.7929 2.29289C12.6054 2.48043 12.5 2.73478 12.5 3V11C12.5 11.2652 12.6054 11.5196 12.7929 11.7071C12.9804 11.8946 13.2348 12 13.5 12H21.5C21.7652 12 22.0196 11.8946 22.2071 11.7071C22.3946 11.5196 22.5 11.2652 22.5 11C22.5 8.61305 21.5518 6.32387 19.864 4.63604C18.1761 2.94821 15.8869 2 13.5 2V2ZM14.5 10V4.07C15.9962 4.28561 17.3824 4.97978 18.4513 6.04868C19.5202 7.11759 20.2144 8.50379 20.43 10H14.5Z" fill="#03030B"/>
<path d="M21.3208 14.0616C21.1967 14.0172 21.0651 13.9978 20.9335 14.0045C20.8019 14.0112 20.673 14.0438 20.554 14.1005C20.4351 14.1572 20.3285 14.2368 20.2404 14.3348C20.1524 14.4328 20.0845 14.5473 20.0408 14.6716C19.5902 15.9455 18.8242 17.0845 17.8143 17.9824C16.8044 18.8802 15.5836 19.5076 14.2657 19.806C12.9478 20.1045 11.5757 20.0642 10.2776 19.689C8.97943 19.3138 7.79747 18.6159 6.84197 17.6604C5.88647 16.7049 5.18857 15.523 4.81338 14.2248C4.43818 12.9267 4.39793 11.5547 4.69637 10.2367C4.99481 8.91883 5.62221 7.69798 6.52005 6.68811C7.41789 5.67823 8.5569 4.91224 9.83082 4.46159C10.0815 4.37407 10.287 4.19057 10.4024 3.95146C10.5177 3.71235 10.5333 3.43722 10.4458 3.18659C10.3583 2.93596 10.1748 2.73036 9.93569 2.61503C9.69658 2.49969 9.42145 2.48407 9.17082 2.57159C7.57786 3.13436 6.15345 4.09155 5.03054 5.35381C3.90762 6.61606 3.12281 8.14224 2.74934 9.78989C2.37588 11.4375 2.42594 13.153 2.89486 14.776C3.36378 16.3991 4.23627 17.8769 5.43089 19.0715C6.62551 20.2661 8.10331 21.1386 9.72638 21.6075C11.3495 22.0765 13.0649 22.1265 14.7125 21.7531C16.3602 21.3796 17.8863 20.5948 19.1486 19.4719C20.4109 18.349 21.368 16.9245 21.9308 15.3316C22.0173 15.0822 22.0017 14.8088 21.8875 14.5709C21.7732 14.333 21.5695 14.1499 21.3208 14.0616Z" fill="#030411"/>
</svg>
